#N canvas 706 277 1366 685 12;
#X obj 207 564 *~;
#X obj 207 611 dac~;
#N canvas 482 101 1168 721 udp_comm 1;
#X obj 192 36 netreceive -u -b 3333;
#X obj 187 74 oscparse;
#X obj 186 130 list trim;
#X obj 249 200 route volume;
#X obj 11 34 route seq_start_stop;
#X obj 499 190 route seq_last_step;
#X obj 244 251 send volume_udp;
#X obj 11 99 send seq_start_stop_udp;
#X obj 497 249 send seq_last_step_udp;
#X obj 178 182 route bpm;
#X obj 137 256 send bpm_udp;
#X obj 363 183 route slew_rate;
#X obj 355 224 send slew_rate_udp;
#X obj 668 190 route cutoff;
#X obj 666 249 send cutoff_udp;
#X obj 787 191 route resonance;
#X obj 785 250 send resonance_udp;
#X obj 56 324 route amp_mod_freq;
#X obj 54 383 send amp_mod_freq_udp;
#X obj 235 327 route amp_mod_amnt;
#X obj 234 387 send amp_mod_amnt_udp;
#X obj 398 328 route freq_mod_freq;
#X obj 399 385 send freq_mod_freq_udp;
#X obj 571 327 route freq_mod_amnt;
#X obj 570 387 send freq_mod_amnt_udp;
#X obj 738 325 route delay_time;
#X obj 737 385 send delay_time_udp;
#X obj 888 314 route delay_volume;
#X obj 887 374 send delay_volume_udp;
#X obj 48 439 route delay_feedback;
#X obj 47 499 send delay_feedback_udp;
#X obj 233 436 route reverb_dry;
#X obj 232 496 send reverb_dry_udp;
#X obj 412 444 route reverb_wet;
#X obj 411 504 send reverb_wet_udp;
#X obj 560 444 route reverb_level;
#X obj 559 504 send reverb_level_udp;
#X obj 721 444 route reverb_feedback;
#X obj 55 560 route attack;
#X obj 54 620 send attack_udp;
#X obj 215 566 route decay;
#X obj 214 626 send decay_udp;
#X obj 363 560 route sustain_level;
#X obj 362 620 send sustain_level_udp;
#X obj 525 560 route sustain_length;
#X obj 524 620 send sustain_length_udp;
#X obj 707 557 route release;
#X obj 706 617 send release_udp;
#X obj 720 504 send reverb_feedback_udp;
#X obj 93 179 route pitch;
#X obj 15 236 send pitch_udp;
#X obj 35 194 mtof;
#X connect 0 0 1 0;
#X connect 1 0 2 0;
#X connect 2 0 3 0;
#X connect 2 0 4 0;
#X connect 2 0 5 0;
#X connect 2 0 9 0;
#X connect 2 0 11 0;
#X connect 2 0 13 0;
#X connect 2 0 15 0;
#X connect 2 0 17 0;
#X connect 2 0 19 0;
#X connect 2 0 21 0;
#X connect 2 0 23 0;
#X connect 2 0 25 0;
#X connect 2 0 27 0;
#X connect 2 0 29 0;
#X connect 2 0 31 0;
#X connect 2 0 33 0;
#X connect 2 0 35 0;
#X connect 2 0 37 0;
#X connect 2 0 38 0;
#X connect 2 0 40 0;
#X connect 2 0 42 0;
#X connect 2 0 44 0;
#X connect 2 0 46 0;
#X connect 2 0 49 0;
#X connect 3 0 6 0;
#X connect 4 0 7 0;
#X connect 5 0 8 0;
#X connect 9 0 10 0;
#X connect 11 0 12 0;
#X connect 13 0 14 0;
#X connect 15 0 16 0;
#X connect 17 0 18 0;
#X connect 19 0 20 0;
#X connect 21 0 22 0;
#X connect 23 0 24 0;
#X connect 25 0 26 0;
#X connect 27 0 28 0;
#X connect 29 0 30 0;
#X connect 31 0 32 0;
#X connect 33 0 34 0;
#X connect 35 0 36 0;
#X connect 37 0 48 0;
#X connect 38 0 39 0;
#X connect 40 0 41 0;
#X connect 42 0 43 0;
#X connect 44 0 45 0;
#X connect 46 0 47 0;
#X connect 49 0 51 0;
#X connect 51 0 50 0;
#X restore 626 30 pd udp_comm;
#X obj 254 570 receive volume;
#N canvas 268 197 1366 685 seq 1;
#X floatatom 244 53 5 0 0 0 - - - 0;
#X obj 201 84 tgl 19 0 empty empty empty 0 -10 0 12 #fcfcfc #000000
#000000 0 1;
#X obj 205 171 bng 19 250 50 0 empty empty empty 0 -10 0 12 #fcfcfc
#000000 #000000;
#X msg 243 84 tempo \$1 permin;
#X obj 204 214 f, f 4;
#X obj 205 446 mtof;
#X floatatom 197 495 5 0 0 0 - - - 0;
#X obj 573 476 array set \$0-pitches;
#X obj 206 302 hradio 16 1 0 16 empty empty empty 0 -10 0 12 #fcfcfc
#000000 #000000 0;
#X obj 210 342 array get \$0-pitches;
#X floatatom 211 398 5 0 0 0 - - - 0;
#X msg 571 432 68 59 54 58 48 68 59 54 58 48 68 59 54 58 48 60;
#X obj 45 24 receive seq_start_stop;
#X obj 346 215 receive seq_last_step;
#X obj 203 263 % \$1;
#X msg 271 252 8;
#X obj 204 127 metro 0.25 120 permin;
#X obj 971 35 midirealtimein;
#X floatatom 971 59 5 0 0 0 - - - 0;
#X obj 966 178 select 0;
#X obj 971 350 bng 15 70 50 0 empty empty pulse 17 7 0 10 #fcfcfc #000000
#000000;
#X obj 962 89 select 248 250 252;
#X obj 1006 209 bng 15 70 50 0 empty empty play 17 7 0 10 #fcfcfc #000000
#000000;
#X obj 1041 233 bng 15 70 50 0 empty empty stop 17 7 0 10 #fcfcfc #000000
#000000;
#X floatatom 1165 119 5 0 0 0 BAR - - 0;
#X text 775 10 select is used as a filter to isolate the needed MIDI
info;
#X obj 972 119 counter 0 0 5;
#X obj 738 203 tgl 19 0 empty empty empty 0 -10 0 12 #fcfcfc #000000
#000000 0 1;
#X floatatom 738 227 5 0 0 0 - - - 0;
#X obj 256 215 +;
#X obj 160 241 * \$1;
#X obj 881 67 print;
#X obj 395 433 bng 20 250 50 0 empty empty empty 0 -10 0 12 #fcfcfc
#000000 #000000;
#X floatatom 461 445 5 0 0 0 - - - 0;
#X obj 399 368 t b f;
#X obj 412 399 select 0;
#X obj 244 13 receive bpm;
#X obj 206 545 send pitch_udp;
#X connect 0 0 3 0;
#X connect 1 0 15 0;
#X connect 1 0 16 0;
#X connect 2 0 4 0;
#X connect 3 0 16 0;
#X connect 4 0 30 0;
#X connect 5 0 6 0;
#X connect 6 0 37 0;
#X connect 8 0 9 0;
#X connect 9 0 10 0;
#X connect 9 0 34 0;
#X connect 11 0 7 0;
#X connect 12 0 1 0;
#X connect 13 0 14 1;
#X connect 14 0 8 0;
#X connect 14 0 29 0;
#X connect 15 0 14 1;
#X connect 16 0 2 0;
#X connect 17 0 18 0;
#X connect 17 0 31 0;
#X connect 18 0 21 0;
#X connect 19 0 20 0;
#X connect 20 0 2 0;
#X connect 21 0 26 0;
#X connect 21 1 22 0;
#X connect 21 2 23 0;
#X connect 22 0 27 0;
#X connect 23 0 27 0;
#X connect 26 0 19 0;
#X connect 26 3 24 0;
#X connect 27 0 28 0;
#X connect 28 0 29 1;
#X connect 28 0 30 1;
#X connect 29 0 4 1;
#X connect 30 0 14 0;
#X connect 33 0 5 0;
#X connect 34 1 35 0;
#X connect 35 0 32 0;
#X connect 35 1 33 0;
#X connect 36 0 0 0;
#X restore 626 66 pd seq;
#X obj 96 143 line~;
#X msg 95 108 \$1 \$2;
#X obj 97 78 pack;
#N canvas 0 64 1850 984 perf 1;
#X obj 43 41 tgl 19 0 seq_start_stop seq_start_stop_udp Start_Stop
0 -10 0 12 #fcfcfc #000000 #000000 0 1;
#X obj 132 44 vsl 19 120 0 300 0 0 bpm bpm_udp BPM 0 -9 0 12 #00ff04
#000000 #000000 0 1;
#X floatatom 128 182 5 0 0 0 - - - 0;
#X obj 201 43 vsl 19 120 0 1 0 0 volume volume_udp Volume 0 -9 0 12
#00ff04 #000000 #000000 0 1;
#X obj 777 45 vsl 19 120 0 1200 0 0 pitch pitch_udp Pitch 0 -9 0 12
#00ff04 #000000 #000000 0 1;
#N canvas 78 78 450 250 (subpatch) 0;
#X array \$0-pitches 16 float 3;
#A 0 68 66.5 0 58 48 0 59 54 58 48 68 59 54 58 48 60;
#X coords 0 0 16 100 200 140 1 0 0;
#X restore 827 41 graph;
#X obj 280 45 vsl 19 120 0 150 0 0 slew_rate slew_rate_udp Slew 0 -9
0 12 #00ff04 #000000 #000000 0 1;
#X obj 253 283 vsl 19 120 0 200 0 0 amp_mod_freq amp_mod_freq_udp Frequency
0 -9 0 12 #00ff04 #000000 #000000 0 1;
#X obj 327 283 vsl 19 120 0 2 0 0 amp_mod_amnt amp_mod_amnt_udp Amount
0 -9 0 12 #00ff04 #000000 #000000 0 1;
#X text 248 236 Amp Mod:;
#X obj 400 277 vsl 19 120 0 1000 0 0 freq_mod_freq freq_mod_freq_udp
Frequency 0 -9 0 12 #00ff04 #000000 #000000 0 1;
#X obj 479 281 vsl 19 120 0 1 0 0 freq_mod_amnt freq_mod_amnt_udp Amount
0 -9 0 12 #00ff04 #000000 #000000 0 1;
#X obj 342 48 vsl 19 120 0 16 0 0 seq_last_step seq_last_step_udp Seq\\\ Last\\\ Step
0 -9 0 12 #00ff04 #000000 #000000 0 1;
#X obj 21 258 vsl 19 120 0 3000 0 0 cutoff cutoff_udp Cutoff 0 -9 0
12 #00ff04 #000000 #000000 0 1;
#X obj 97 262 vsl 19 120 0 6 0 0 resonance resonance_udp Resonance
0 -9 0 12 #00ff04 #000000 #000000 0 1;
#N canvas 0 50 450 250 (subpatch) 0;
#X array waveformarray 200 float 5;
#A 0 -0.975278 -0.969346 -0.963413 -0.957481 -0.951548 -0.945615 -0.939683
-0.93375 -0.927818 -0.921885 -0.915953 -0.91002 -0.904088 -0.898155
-0.892222 -0.88629 -0.880357 -0.874425 -0.868492 -0.86256 -0.856627
-0.850695 -0.844762 -0.83883 -0.832897 -0.826964 -0.821032 -0.815099
-0.809167 -0.803234 -0.797302 -0.791369 -0.785437 -0.779504 -0.773571
-0.767639 -0.761706 -0.755774 -0.749841 -0.743909 -0.737976 -0.732044
-0.726111 -0.720178 -0.714246 -0.708313 -0.702381 -0.696448 -0.690516
-0.684583 -0.678651 -0.672718 -0.666785 -0.660853 -0.65492 -0.648988
-0.643055 -0.637123 -0.63119 -0.625258 -0.619325 -0.613392 -0.60746
-0.601527 -0.595595 -0.589662 -0.58373 -0.577797 -0.571865 -0.565932
-0.559999 -0.554067 -0.548134 -0.542202 -0.536269 -0.530337 -0.524404
-0.518472 -0.512539 -0.506607 -0.500674 -0.494741 -0.488809 -0.482876
-0.476944 -0.471011 -0.465079 -0.459146 -0.453214 -0.447281 -0.441348
-0.435416 -0.429483 -0.423551 -0.417618 -0.411686 -0.405753 -0.399821
-0.393888 -0.387955 -0.382023 -0.37609 -0.370158 -0.364225 -0.358293
-0.35236 -0.346428 -0.340495 -0.334562 -0.32863 -0.322697 -0.316765
-0.310832 -0.3049 -0.298967 -0.293035 -0.287102 -0.28117 -0.275237
-0.269304 -0.263372 -0.257439 -0.251507 -0.245574 -0.239642 -0.233709
-0.227777 -0.221844 -0.215911 -0.209979 -0.204046 -0.198114 -0.192181
-0.186249 -0.180316 -0.174384 -0.168451 -0.162519 -0.156586 -0.150653
-0.144721 -0.138788 -0.132856 -0.126923 -0.120991 -0.115058 -0.109125
-0.103193 -0.0972604 -0.0913278 -0.0853953 -0.0794627 -0.0735302 -0.0675976
-0.0616651 -0.0557325 -0.0498 -0.0438674 -0.0379348 -0.0320023 -0.0260698
-0.0201372 -0.0142047 -0.00827211 -0.00233954 0.00359297 0.00952554
0.0154581 0.0213907 0.0273232 0.0332558 0.0391883 0.0451208 0.0510534
0.056986 0.0629185 0.0688511 0.0747837 0.0807161 0.0866487 0.0925813
0.0985138 0.104446 0.110379 0.116312 0.122244 0.128177 0.134109 0.140042
0.145974 0.151907 0.157839 0.163772 0.169704 0.175637 0.18157 0.187502
0.193435 0.199367 0.2053;
#X coords 0 2 199 -2 200 140 1 0 0;
#X restore 819 220 graph;
#X text 392 235 Freq Mod:;
#X obj 224 501 vsl 19 120 0 1 0 0 reverb_dry reverb_dry_udp Dry 0 -9
0 12 #00ff04 #000000 #000000 0 1;
#X text 216 455 Reverb:;
#X obj 261 497 vsl 19 120 0 1 0 0 reverb_wet reverb_wet_udp Wet 0 -9
0 12 #00ff04 #000000 #000000 0 1;
#X obj 298 502 vsl 19 120 0 100 0 0 reverb_level reverb_level_udp Level
0 -9 0 12 #00ff04 #000000 #000000 0 1;
#X obj 345 502 vsl 19 120 0 200 0 0 reverb_feedback reverb_feedback_udp
Feedback 0 -9 0 12 #00ff04 #000000 #000000 0 1;
#X obj 403 506 vsl 19 120 0 7000 0 0 reverb_crossover_freq reverb_crossover_freq_udp
CrossFreq 0 -9 0 12 #00ff04 #000000 #000000 0 1;
#X obj 468 506 vsl 19 120 0 100 0 0 reverb_h_f_d_p reverb_h_f_d_p_udp
HFDP 0 -9 0 12 #00ff04 #000000 #000000 0 1;
#X text 15 436 Delay:;
#X obj 24 491 vsl 19 120 0 4000 0 0 delay_time delay_time_udp Time
0 -9 0 12 #00ff04 #000000 #000000 0 1;
#X obj 80 487 vsl 19 120 0 0.3 0 0 delay_volume delay_volume_udp Volume
0 -9 0 12 #00ff04 #000000 #000000 0 1;
#X obj 137 492 vsl 19 120 0 1.3 0 0 delay_feedback delay_feedback_udp
Feedback 0 -9 0 12 #00ff04 #000000 #000000 0 1;
#X text 608 459 Envelope:;
#X obj 617 496 vsl 19 120 1 600 0 0 attack attack_udp Attack 0 -9 0
12 #00ff04 #000000 #000000 0 1;
#X obj 677 495 vsl 19 120 1 1200 0 0 decay decay_udp Decay 0 -9 0 12
#00ff04 #000000 #000000 0 1;
#X obj 735 498 vsl 19 120 0.01 1 0 0 sustain_level sustain_level_udp
SustainLevel 0 -9 0 12 #00ff04 #000000 #000000 0 1;
#X obj 829 495 vsl 19 120 1 1200 0 0 sustain_length sustain_length_udp
SustainLength 0 -9 0 12 #00ff04 #000000 #000000 0 1;
#X obj 937 499 vsl 19 120 1 1200 0 0 release release_udp Release 0
-9 0 12 #00ff04 #000000 #000000 0 1;
#X text 132 9 Main;
#X text 9 217 Filter;
#X text 252 211 Mod;
#X text 15 407 Effects;
#X connect 1 0 2 0;
#X restore 647 121 pd perf;
#X obj 134 43 receive slew_rate;
#X obj 263 401 bp~, f 5;
#X obj 6 202 tabwrite~ waveformarray;
#X obj 6 144 bng 19 250 50 0 empty empty empty 0 -10 0 12 #fcfcfc #000000
#000000;
#X obj 28 60 tgl 19 0 empty empty empty 0 -10 0 12 #fcfcfc #000000
#000000 0 1;
#X obj 43 336 *~;
#N canvas 674 182 1366 685 amp_mod 1;
#X obj 294 203 osc~;
#X obj 295 235 +~ 1;
#X obj 298 265 /~ 2;
#X obj 310 300 *~;
#X obj 277 327 expr~ 1 - $v1;
#X obj 297 171 receive amp_mod_freq;
#X obj 163 403 outlet~;
#X obj 363 246 receive amp_mod_amnt;
#X connect 0 0 1 0;
#X connect 1 0 2 0;
#X connect 2 0 3 0;
#X connect 3 0 4 0;
#X connect 4 0 6 0;
#X connect 5 0 0 0;
#X connect 7 0 3 1;
#X restore 164 298 pd amp_mod;
#N canvas 555 218 450 300 freq_mod 0;
#X obj 184 113 osc~;
#X obj 179 147 *~;
#X obj 176 207 +~;
#X obj 266 115 *~;
#X obj 100 76 receive freq_mod_freq;
#X obj 95 245 outlet~;
#X obj 133 28 inlet~;
#X obj 268 78 receive freq_mod_amnt;
#X connect 0 0 1 0;
#X connect 1 0 2 0;
#X connect 2 0 5 0;
#X connect 3 0 1 1;
#X connect 4 0 0 0;
#X connect 6 0 2 1;
#X connect 6 0 3 1;
#X connect 7 0 3 0;
#X restore 181 199 pd freq_mod;
#X obj 324 503 rev2~, f 13;
#X obj 336 405 r reverb_level;
#X obj 362 434 r reverb_feedback;
#X obj 394 463 r reverb_crossover_freq;
#X obj 463 487 r reverb_h_f_d_p;
#X obj 276 526 *~;
#X obj 359 538 r reverb_wet;
#X obj 217 493 *~;
#X obj 84 433 r reverb_dry;
#X obj 5 571 delwrite~ audio-buffer 5000;
#N canvas 633 181 450 300 delay 0;
#X obj 87 99 delread~ audio-buffer 0;
#X obj 139 144 r delay_volume;
#X obj 93 183 *~;
#X obj 81 37 r delay_time;
#X obj 165 204 *~;
#X obj 192 176 r delay_feedback;
#X obj 83 232 dac~;
#X obj 168 239 send~ delay_feedback;
#X connect 0 0 2 0;
#X connect 0 0 4 0;
#X connect 1 0 2 1;
#X connect 2 0 6 0;
#X connect 2 0 6 1;
#X connect 3 0 0 0;
#X connect 4 0 7 0;
#X connect 5 0 4 1;
#X restore 658 224 pd delay;
#X obj 18 479 receive~ delay_feedback;
#N canvas 214 152 863 480 main_wave 1;
#X obj 19 265 outlet~;
#X obj 101 19 inlet~;
#X obj 182 71 phasor~;
#X obj 191 126 expr~ $v1*2 -1;
#X obj 370 131 expr~ if($v1 > 0 \, 1 \, -1);
#X obj 374 65 osc~;
#X obj 97 120 osc~;
#X obj 215 254 hradio 19 1 0 3 empty empty empty 0 -10 0 12 #fcfcfc
#000000 #000000 0;
#X obj 203 308 == 0;
#X obj 286 310 == 1;
#X obj 94 163 *~;
#X obj 203 171 *~;
#X obj 312 191 *~;
#X obj 336 311 == 2;
#X connect 1 0 2 0;
#X connect 1 0 6 0;
#X connect 1 0 5 0;
#X connect 2 0 3 0;
#X connect 3 0 11 0;
#X connect 4 0 12 0;
#X connect 5 0 4 0;
#X connect 6 0 10 0;
#X connect 7 0 8 0;
#X connect 7 0 9 0;
#X connect 7 0 13 0;
#X connect 8 0 10 1;
#X connect 9 0 11 1;
#X connect 10 0 0 0;
#X connect 11 0 0 0;
#X connect 12 0 0 0;
#X connect 13 0 12 1;
#X restore 141 257 pd main_wave;
#X obj 15 117 metro 50;
#N canvas 4 64 1366 685 adsr_envelope 1;
#X obj 84 128 inlet~;
#X obj 74 556 outlet~;
#X obj 112 34 receive freq;
#X obj 110 419 vline~;
#X obj 168 76 bng 19 250 50 0 empty empty empty 0 -10 0 12 #fcfcfc
#000000 #000000;
#X obj 502 491 r decay;
#X obj 884 495 r release;
#X obj 458 542 v decay_value;
#X obj 917 542 v release_value;
#X obj 390 499 r attack;
#X obj 337 549 v attack_value;
#X obj 565 490 r sustain_level;
#X obj 563 552 v sustain_level_value;
#X obj 733 543 v sustain_length_value;
#X floatatom 314 521 5 0 0 0 - - - 0;
#X floatatom 453 468 5 0 0 0 - - - 0;
#X obj 192 133 expr attack_value;
#X obj 233 162 expr decay_value;
#X obj 280 194 expr sustain_level_value;
#X obj 202 296 pack f f f f f;
#X floatatom 559 446 5 0 0 0 - - - 0;
#X floatatom 725 460 5 0 0 0 - - - 0;
#X floatatom 883 462 5 0 0 0 - - - 0;
#X obj 723 496 r sustain_length;
#X msg 205 333 1 \$1 0 \, \$3 \$2 \$1 \, 0 \$5 \$4;
#X obj 308 267 expr release_value;
#X obj 311 220 expr sustain_length_value + attack_value + decay_value
;
#X obj 76 449 *~;
#X connect 0 0 27 0;
#X connect 2 0 4 0;
#X connect 3 0 27 1;
#X connect 4 0 16 0;
#X connect 5 0 7 0;
#X connect 5 0 15 0;
#X connect 6 0 8 0;
#X connect 6 0 22 0;
#X connect 9 0 14 0;
#X connect 9 0 10 0;
#X connect 11 0 12 0;
#X connect 11 0 20 0;
#X connect 16 0 17 0;
#X connect 16 0 19 0;
#X connect 17 0 18 0;
#X connect 17 0 19 1;
#X connect 18 0 19 2;
#X connect 18 0 26 0;
#X connect 19 0 24 0;
#X connect 23 0 13 0;
#X connect 23 0 21 0;
#X connect 24 0 3 0;
#X connect 25 0 19 4;
#X connect 26 0 19 3;
#X connect 26 0 25 0;
#X connect 27 0 1 0;
#X restore 53 374 pd adsr_envelope;
#X obj 277 337 r cutoff;
#X obj 320 373 r resonance;
#X obj 91 10 receive pitch;
#X connect 0 0 1 0;
#X connect 0 0 1 1;
#X connect 3 0 0 1;
#X connect 5 0 16 0;
#X connect 6 0 5 0;
#X connect 7 0 6 0;
#X connect 9 0 7 1;
#X connect 10 0 17 0;
#X connect 10 0 24 1;
#X connect 12 0 11 0;
#X connect 13 0 30 0;
#X connect 14 0 11 0;
#X connect 14 0 10 0;
#X connect 15 0 14 1;
#X connect 16 0 29 0;
#X connect 17 0 22 0;
#X connect 18 0 17 1;
#X connect 19 0 17 2;
#X connect 20 0 17 3;
#X connect 21 0 17 4;
#X connect 22 0 0 0;
#X connect 22 0 26 0;
#X connect 23 0 22 1;
#X connect 24 0 0 0;
#X connect 24 0 26 0;
#X connect 25 0 24 0;
#X connect 28 0 26 0;
#X connect 29 0 14 0;
#X connect 30 0 12 0;
#X connect 32 0 10 1;
#X connect 33 0 10 2;
#X connect 34 0 7 0;
