#N canvas 26 26 1366 685 12;
#X obj 523 111 netreceive -u -b 3333;
#X obj 518 149 oscparse;
#X obj 517 205 list trim;
#X obj 424 254 route freq;
#X obj 507 259 route volume;
#X obj 418 318 send freq;
#X obj 512 324 send volume;
#X obj 771 256 route tempo;
#X obj 773 320 send tempo;
#X obj 614 259 route seq_start_stop;
#X obj 613 323 send seq_start_stop;
#X obj 876 256 route seq_last_step;
#X obj 876 321 send seq_last_step;
#X connect 0 0 1 0;
#X connect 1 0 2 0;
#X connect 2 0 3 0;
#X connect 2 0 4 0;
#X connect 2 0 7 0;
#X connect 2 0 9 0;
#X connect 2 0 11 0;
#X connect 3 0 5 0;
#X connect 4 0 6 0;
#X connect 7 0 8 0;
#X connect 9 0 10 0;
#X connect 11 0 12 0;
